<?xml version="1.0" encoding="UTF-8" standalone="no"?>
<svg
   xmlns:dc="http://purl.org/dc/elements/1.1/"
   xmlns:cc="http://creativecommons.org/ns#"
   xmlns:rdf="http://www.w3.org/1999/02/22-rdf-syntax-ns#"
   xmlns:svg="http://www.w3.org/2000/svg"
   xmlns="http://www.w3.org/2000/svg"
   xmlns:xlink="http://www.w3.org/1999/xlink"
   xmlns:sodipodi="http://sodipodi.sourceforge.net/DTD/sodipodi-0.dtd"
   xmlns:inkscape="http://www.inkscape.org/namespaces/inkscape"
   width="2340"
   height="1080"
   viewBox="0 0 619.12498 285.75001"
   version="1.1"
   id="svg8"
   inkscape:version="1.0.1 (3bc2e813f5, 2020-09-07)"
   sodipodi:docname="ramen.svg"
   inkscape:export-filename="E:\UNity\KANJI_MOBILE_2D\Assets\sprites\ramen_bg.png"
   inkscape:export-xdpi="96.013466"
   inkscape:export-ydpi="96.013466">
  <defs
     id="defs2">
    <linearGradient
       inkscape:collect="always"
       id="linearGradient1029">
      <stop
         style="stop-color:#000000;stop-opacity:1;"
         offset="0"
         id="stop1025" />
      <stop
         style="stop-color:#383838;stop-opacity:1"
         offset="1"
         id="stop1027" />
    </linearGradient>
    <linearGradient
       inkscape:collect="always"
       id="linearGradient9258">
      <stop
         style="stop-color:#000000;stop-opacity:1;"
         offset="0"
         id="stop9254" />
      <stop
         style="stop-color:#000000;stop-opacity:0.76119405"
         offset="1"
         id="stop9256" />
    </linearGradient>
    <linearGradient
       inkscape:collect="always"
       id="linearGradient8691">
      <stop
         style="stop-color:#ffd42a;stop-opacity:1;"
         offset="0"
         id="stop8687" />
      <stop
         style="stop-color:#ffd42a;stop-opacity:0;"
         offset="1"
         id="stop8689" />
    </linearGradient>
    <linearGradient
       inkscape:collect="always"
       id="linearGradient8651">
      <stop
         style="stop-color:#000000;stop-opacity:1;"
         offset="0"
         id="stop8647" />
      <stop
         style="stop-color:#000000;stop-opacity:0;"
         offset="1"
         id="stop8649" />
    </linearGradient>
    <linearGradient
       inkscape:collect="always"
       id="linearGradient8627">
      <stop
         style="stop-color:#502d16;stop-opacity:1;"
         offset="0"
         id="stop8623" />
      <stop
         style="stop-color:#9b572a;stop-opacity:0.90588236"
         offset="1"
         id="stop8625" />
    </linearGradient>
    <linearGradient
       inkscape:collect="always"
       id="linearGradient8613">
      <stop
         style="stop-color:#17280b;stop-opacity:1"
         offset="0"
         id="stop8609" />
      <stop
         style="stop-color:#99ff55;stop-opacity:1"
         offset="1"
         id="stop8611" />
    </linearGradient>
    <linearGradient
       inkscape:collect="always"
       id="linearGradient8581">
      <stop
         style="stop-color:#d5d50d;stop-opacity:1;"
         offset="0"
         id="stop8577" />
      <stop
         style="stop-color:#d5d50d;stop-opacity:0;"
         offset="1"
         id="stop8579" />
    </linearGradient>
    <inkscape:path-effect
       effect="bspline"
       id="path-effect8538"
       is_visible="true"
       weight="33.333333"
       steps="2"
       helper_size="0"
       apply_no_weight="true"
       apply_with_weight="true"
       only_selected="false" />
    <inkscape:path-effect
       effect="bspline"
       id="path-effect8534"
       is_visible="true"
       weight="33.333333"
       steps="2"
       helper_size="0"
       apply_no_weight="true"
       apply_with_weight="true"
       only_selected="false" />
    <inkscape:path-effect
       effect="bspline"
       id="path-effect8530"
       is_visible="true"
       weight="33.333333"
       steps="2"
       helper_size="0"
       apply_no_weight="true"
       apply_with_weight="true"
       only_selected="false" />
    <linearGradient
       inkscape:collect="always"
       xlink:href="#linearGradient8581"
       id="linearGradient8583"
       x1="-1365.0684"
       y1="124.55861"
       x2="-1285.6929"
       y2="122.17736"
       gradientUnits="userSpaceOnUse" />
    <linearGradient
       inkscape:collect="always"
       xlink:href="#linearGradient8581"
       id="linearGradient8585"
       x1="-1285.6929"
       y1="122.17736"
       x2="-1206.8466"
       y2="120.32527"
       gradientUnits="userSpaceOnUse" />
    <linearGradient
       inkscape:collect="always"
       xlink:href="#linearGradient8581"
       id="linearGradient8587"
       x1="-1206.8466"
       y1="120.32527"
       x2="-1132.2336"
       y2="117.94402"
       gradientUnits="userSpaceOnUse" />
    <linearGradient
       inkscape:collect="always"
       xlink:href="#linearGradient8581"
       id="linearGradient8589"
       x1="-1132.2336"
       y1="117.94402"
       x2="-1052.9229"
       y2="122.17735"
       gradientUnits="userSpaceOnUse" />
    <linearGradient
       inkscape:collect="always"
       xlink:href="#linearGradient8613"
       id="linearGradient8615"
       x1="-1054.9797"
       y1="19.522955"
       x2="-1054.5771"
       y2="155.72348"
       gradientUnits="userSpaceOnUse" />
    <linearGradient
       inkscape:collect="always"
       xlink:href="#linearGradient8627"
       id="linearGradient8629"
       x1="-774.70752"
       y1="174.87978"
       x2="-1045.6254"
       y2="182.36331"
       gradientUnits="userSpaceOnUse" />
    <linearGradient
       inkscape:collect="always"
       xlink:href="#linearGradient8651"
       id="linearGradient8653"
       x1="-1049.9803"
       y1="48.734718"
       x2="-1040.2412"
       y2="240.31352"
       gradientUnits="userSpaceOnUse" />
    <linearGradient
       inkscape:collect="always"
       xlink:href="#linearGradient8691"
       id="linearGradient8693"
       x1="-1447.0795"
       y1="107.64952"
       x2="-1417.9696"
       y2="110.82452"
       gradientUnits="userSpaceOnUse" />
    <linearGradient
       inkscape:collect="always"
       xlink:href="#linearGradient8613"
       id="linearGradient8744"
       gradientUnits="userSpaceOnUse"
       x1="-1054.9797"
       y1="19.522955"
       x2="-1054.5771"
       y2="155.72348" />
    <linearGradient
       inkscape:collect="always"
       xlink:href="#linearGradient8627"
       id="linearGradient8746"
       gradientUnits="userSpaceOnUse"
       x1="-774.70752"
       y1="174.87978"
       x2="-1045.6254"
       y2="182.36331" />
    <linearGradient
       inkscape:collect="always"
       xlink:href="#linearGradient8581"
       id="linearGradient8748"
       gradientUnits="userSpaceOnUse"
       x1="-1365.0684"
       y1="124.55861"
       x2="-1285.6929"
       y2="122.17736" />
    <linearGradient
       inkscape:collect="always"
       xlink:href="#linearGradient8581"
       id="linearGradient8750"
       gradientUnits="userSpaceOnUse"
       x1="-1206.8466"
       y1="120.32527"
       x2="-1132.2336"
       y2="117.94402" />
    <linearGradient
       inkscape:collect="always"
       xlink:href="#linearGradient8651"
       id="linearGradient8752"
       gradientUnits="userSpaceOnUse"
       x1="-1049.9803"
       y1="48.734718"
       x2="-1040.2412"
       y2="240.31352" />
    <linearGradient
       inkscape:collect="always"
       xlink:href="#linearGradient8691"
       id="linearGradient8754"
       gradientUnits="userSpaceOnUse"
       x1="-1447.0795"
       y1="107.64952"
       x2="-1417.9696"
       y2="110.82452" />
    <linearGradient
       inkscape:collect="always"
       xlink:href="#linearGradient9258"
       id="linearGradient9260"
       x1="312.20834"
       y1="12.308793"
       x2="315.38339"
       y2="294.88379"
       gradientUnits="userSpaceOnUse" />
    <filter
       inkscape:collect="always"
       style="color-interpolation-filters:sRGB"
       id="filter9616"
       x="-0.132"
       width="1.264"
       y="-0.132"
       height="1.264">
      <feGaussianBlur
         inkscape:collect="always"
         stdDeviation="0.31919518"
         id="feGaussianBlur9618" />
    </filter>
    <filter
       inkscape:collect="always"
       style="color-interpolation-filters:sRGB"
       id="filter9620"
       x="-0.132"
       width="1.264"
       y="-0.132"
       height="1.264">
      <feGaussianBlur
         inkscape:collect="always"
         stdDeviation="0.31919518"
         id="feGaussianBlur9622" />
    </filter>
    <filter
       inkscape:collect="always"
       style="color-interpolation-filters:sRGB"
       id="filter9624"
       x="-0.132"
       width="1.264"
       y="-0.132"
       height="1.264">
      <feGaussianBlur
         inkscape:collect="always"
         stdDeviation="0.31919518"
         id="feGaussianBlur9626" />
    </filter>
    <filter
       inkscape:collect="always"
       style="color-interpolation-filters:sRGB"
       id="filter9628"
       x="-0.132"
       width="1.264"
       y="-0.132"
       height="1.264">
      <feGaussianBlur
         inkscape:collect="always"
         stdDeviation="0.31919518"
         id="feGaussianBlur9630" />
    </filter>
    <filter
       inkscape:collect="always"
       style="color-interpolation-filters:sRGB"
       id="filter9632"
       x="-0.132"
       width="1.264"
       y="-0.132"
       height="1.264">
      <feGaussianBlur
         inkscape:collect="always"
         stdDeviation="0.31919518"
         id="feGaussianBlur9634" />
    </filter>
    <filter
       inkscape:collect="always"
       style="color-interpolation-filters:sRGB"
       id="filter9636"
       x="-0.132"
       width="1.264"
       y="-0.132"
       height="1.264">
      <feGaussianBlur
         inkscape:collect="always"
         stdDeviation="0.31919518"
         id="feGaussianBlur9638" />
    </filter>
    <filter
       inkscape:collect="always"
       style="color-interpolation-filters:sRGB"
       id="filter9640"
       x="-0.132"
       width="1.264"
       y="-0.132"
       height="1.264">
      <feGaussianBlur
         inkscape:collect="always"
         stdDeviation="0.31919518"
         id="feGaussianBlur9642" />
    </filter>
    <filter
       inkscape:collect="always"
       style="color-interpolation-filters:sRGB"
       id="filter9644"
       x="-0.132"
       width="1.264"
       y="-0.132"
       height="1.264">
      <feGaussianBlur
         inkscape:collect="always"
         stdDeviation="0.31919518"
         id="feGaussianBlur9646" />
    </filter>
    <filter
       height="1.624"
       y="-0.312"
       width="1.624"
       x="-0.312"
       id="filter9690"
       style="color-interpolation-filters:sRGB"
       inkscape:collect="always">
      <feGaussianBlur
         id="feGaussianBlur9688"
         stdDeviation="0.75446132"
         inkscape:collect="always" />
    </filter>
    <filter
       inkscape:collect="always"
       style="color-interpolation-filters:sRGB"
       id="filter9816"
       x="-0.39609003"
       width="1.7921801"
       y="-0.3299375"
       height="1.659875">
      <feGaussianBlur
         inkscape:collect="always"
         stdDeviation="7.2019001"
         id="feGaussianBlur9818" />
    </filter>
    <linearGradient
       inkscape:collect="always"
       xlink:href="#linearGradient1029"
       id="linearGradient9946"
       gradientUnits="userSpaceOnUse"
       x1="325.07068"
       y1="304.21729"
       x2="316.5527"
       y2="-109.75362"
       gradientTransform="matrix(1,0,0,0.98540751,-2.9404711,-2.2403)" />
    <filter
       inkscape:collect="always"
       style="color-interpolation-filters:sRGB"
       id="filter5052"
       x="-0.017172331"
       width="1.0343447"
       y="-0.040237356"
       height="1.0804747">
      <feGaussianBlur
         inkscape:collect="always"
         stdDeviation="5.1076264"
         id="feGaussianBlur5054" />
    </filter>
  </defs>
  <sodipodi:namedview
     id="base"
     pagecolor="#ffffff"
     bordercolor="#666666"
     borderopacity="1.0"
     inkscape:pageopacity="0.0"
     inkscape:pageshadow="2"
     inkscape:zoom="0.22627417"
     inkscape:cx="186.82899"
     inkscape:cy="571.90061"
     inkscape:document-units="px"
     inkscape:current-layer="layer1"
     showgrid="true"
     units="px"
     width="1080in"
     showborder="true"
     inkscape:showpageshadow="false"
     inkscape:pagecheckerboard="false"
     inkscape:snap-global="false"
     inkscape:window-width="1920"
     inkscape:window-height="1001"
     inkscape:window-x="-9"
     inkscape:window-y="-9"
     inkscape:window-maximized="1"
     inkscape:document-rotation="0" />
  <metadata
     id="metadata5">
    <rdf:RDF>
      <cc:Work
         rdf:about="">
        <dc:format>image/svg+xml</dc:format>
        <dc:type
           rdf:resource="http://purl.org/dc/dcmitype/StillImage" />
        <dc:title />
      </cc:Work>
    </rdf:RDF>
  </metadata>
  <g
     inkscape:label="Layer 1"
     inkscape:groupmode="layer"
     id="layer1"
     transform="translate(0,-11.250462)"
     style="opacity:1">
    <rect
       y="8.845993"
       x="-0.8238042"
       height="281.5802"
       width="619.125"
       id="rect8756"
       style="fill:url(#linearGradient9946);fill-opacity:1;stroke:none;stroke-width:0;stroke-linecap:butt;stroke-linejoin:round;stroke-miterlimit:4;stroke-dasharray:none;stroke-dashoffset:40.7433;stroke-opacity:1"
       inkscape:export-xdpi="96.013466"
       inkscape:export-ydpi="96.013466" />
    <g
       style="filter:url(#filter5052)"
       transform="matrix(0.10549189,0,0,0.1039525,539.6132,319.74783)"
       id="g8742"
       inkscape:export-xdpi="96.013466"
       inkscape:export-ydpi="96.013466">
      <path
         style="opacity:1;fill:#2b1100;fill-opacity:0.905882;stroke:none;stroke-width:0;stroke-linecap:butt;stroke-linejoin:round;stroke-miterlimit:4;stroke-dasharray:none;stroke-dashoffset:40.7433;stroke-opacity:1"
         d="m -1301.3888,91.202926 240.9702,-13.470384 -1.4967,165.386388 -239.0994,-25.81824 z"
         id="rect8660"
         inkscape:connector-curvature="0"
         sodipodi:nodetypes="ccccc" />
      <path
         style="fill:#803300;stroke:none;stroke-width:0.782056px;stroke-linecap:butt;stroke-linejoin:miter;stroke-opacity:1"
         d="m -1404.1587,75.824829 -47.1502,-33.987462 c 0,0 -0.3063,-5.641512 0.9244,-5.70593 0.2867,-0.01591 1.3857,0.14321 2.0034,0.868279 0,0 46.3795,33.615354 47.9203,33.863453 l 1.5407,0.247967 z"
         id="path8669"
         inkscape:connector-curvature="0"
         sodipodi:nodetypes="ccscccc" />
      <path
         style="fill:url(#linearGradient8744);fill-opacity:1;stroke:#000000;stroke-width:0.264583px;stroke-linecap:butt;stroke-linejoin:miter;stroke-opacity:1"
         d="m -1362.8646,25.389133 -52.5032,59.117838 364.6289,-31.005858 295.23244,21.756776 -43.46487,-61.030865 -244.32617,-40.514322 -11.9889,-1.240234 -13.2292,1.240234 h -4.1341 z"
         id="path8498"
         inkscape:connector-curvature="0"
         sodipodi:nodetypes="cccccccccc" />
      <path
         style="fill:#241c1c;stroke:#000000;stroke-width:0.264583px;stroke-linecap:butt;stroke-linejoin:miter;stroke-opacity:1"
         d="m -1046.3207,277.12229 -3.5079,-208.136144 -329.1592,19.878169 0.5847,140.901155 h 7.6005 l -0.5847,-133.300676 309.281,-18.124215 1.1693,197.027751 z"
         id="path8500"
         inkscape:connector-curvature="0" />
      <path
         style="fill:url(#linearGradient8746);fill-opacity:1;stroke:#000000;stroke-width:0.264583px;stroke-linecap:butt;stroke-linejoin:miter;stroke-opacity:1"
         d="m -1042.8128,274.78368 -1.1693,-205.797534 271.27857,18.708867 2.3386,162.533277 z"
         id="path8502"
         inkscape:connector-curvature="0" />
      <path
         style="opacity:1;fill:#000000;fill-opacity:0.736318;stroke:none;stroke-width:0;stroke-linecap:butt;stroke-linejoin:round;stroke-miterlimit:4;stroke-dasharray:none;stroke-dashoffset:40.7433;stroke-opacity:1"
         d="m -970.71365,267.87655 c -2.66753,0.006 -27.64258,4.93571 -29.68085,-0.5527 -3.2806,-8.83398 -2.4418,-27.72412 -2.2286,-45.41474 0.3825,-31.72941 -1.2155,-48.07578 14.34239,-49.34543 16.8324,1.51158 18.08107,22.52307 16.72221,46.50868"
         id="path8504"
         inkscape:connector-curvature="0"
         sodipodi:nodetypes="csscc" />
      <path
         style="fill:#000000;fill-opacity:0.736318;stroke:#000000;stroke-width:0.264583px;stroke-linecap:butt;stroke-linejoin:miter;stroke-opacity:1"
         d="m -986.81316,172.97702 v -12.40234 l -2.48046,-2.89388 v -5.78776 l -6.20118,-4.13412 -0.41341,-4.96093 h -2.89388 l 0.82683,-72.760419 c 0,0 -5.78774,0.826823 -6.20114,0.413411 -0.4134,-0.413411 -0.4134,-0.413411 -0.4134,-0.413411 l 0.8268,73.173829 h -4.1341 v 5.37435 h 8.6816 l 7.028,5.78776 v 4.54752 l 2.48046,3.30729 v 10.33529 z"
         id="path8507"
         inkscape:connector-curvature="0" />
      <path
         style="opacity:1;fill:#2b1100;fill-opacity:0.905882;stroke:none;stroke-width:0;stroke-linecap:butt;stroke-linejoin:round;stroke-miterlimit:4;stroke-dasharray:none;stroke-dashoffset:40.7433;stroke-opacity:1"
         d="m -1372.6583,92.212964 h 75.6709 l -3.175,124.883326 -70.9084,13.75833 z"
         id="rect8657"
         inkscape:connector-curvature="0"
         sodipodi:nodetypes="ccccc" />
      <path
         style="opacity:1;fill:#def370;fill-opacity:0.736318;stroke:none;stroke-width:0;stroke-linecap:butt;stroke-linejoin:round;stroke-miterlimit:4;stroke-dasharray:none;stroke-dashoffset:40.7433;stroke-opacity:1"
         d="m -1372.1784,96.464798 310.4502,-18.708867 0.5145,197.004369 -309.2108,-43.24087 z"
         id="rect8509"
         inkscape:connector-curvature="0"
         sodipodi:nodetypes="ccccc" />
      <path
         style="opacity:1;fill:#4d4d4d;fill-opacity:0.58209;stroke:none;stroke-width:0;stroke-linecap:butt;stroke-linejoin:round;stroke-miterlimit:4;stroke-dasharray:none;stroke-dashoffset:40.7433;stroke-opacity:1"
         d="m -1343.0095,179.70704 282.0303,16.22258 v 50.8 l -271.9917,-30.69167 z"
         id="rect8666"
         inkscape:connector-curvature="0"
         sodipodi:nodetypes="ccccc" />
      <g
         id="g8548"
         style="fill:#29291d;fill-opacity:1"
         transform="translate(-944.03373,-15.875)">
        <path
           inkscape:connector-curvature="0"
           id="path8542"
           d="m -384.97721,245.67129 c 0,0 6.28386,0.26459 6.35,0.13229 0.0661,-0.13229 0.0661,-0.13229 0.0661,-0.13229 l 0.59531,-2.44739 c 0,0 -4.10104,-3.70417 -4.0349,-3.57188 0.0661,0.13229 0.0661,0.13229 0.0661,0.13229 h -1.52135 l 0.13229,-26.59062 5.75468,-0.26458 c 0,0 2.84428,-2.38125 2.64584,-2.38125 -0.19844,0 -0.19844,0 -0.19844,0 l 0.99219,-2.31511 -1.98438,-2.11667 -8.73125,0.33073"
           style="fill:#29291d;fill-opacity:1;stroke:#000000;stroke-width:0.264583px;stroke-linecap:butt;stroke-linejoin:miter;stroke-opacity:1" />
        <path
           style="fill:#29291d;fill-opacity:1;stroke:#000000;stroke-width:0.264583px;stroke-linecap:butt;stroke-linejoin:miter;stroke-opacity:1"
           d="m -384.69492,245.67129 c 0,0 -6.28386,0.26459 -6.35,0.13229 -0.0661,-0.13229 -0.0661,-0.13229 -0.0661,-0.13229 l -0.59531,-2.44739 c 0,0 4.10104,-3.70417 4.0349,-3.57188 -0.0661,0.13229 -0.0661,0.13229 -0.0661,0.13229 h 1.52135 l -0.13229,-26.59062 -5.75468,-0.26458 c 0,0 -2.84428,-2.38125 -2.64584,-2.38125 0.19844,0 0.19844,0 0.19844,0 l -0.99219,-2.31511 1.98438,-2.11667 8.73125,0.33073"
           id="path8544"
           inkscape:connector-curvature="0" />
      </g>
      <g
         transform="translate(-880.53369,-10.583333)"
         style="fill:#29291d;fill-opacity:1"
         id="g8554">
        <path
           style="fill:#29291d;fill-opacity:1;stroke:#000000;stroke-width:0.264583px;stroke-linecap:butt;stroke-linejoin:miter;stroke-opacity:1"
           d="m -384.97721,245.67129 c 0,0 6.28386,0.26459 6.35,0.13229 0.0661,-0.13229 0.0661,-0.13229 0.0661,-0.13229 l 0.59531,-2.44739 c 0,0 -4.10104,-3.70417 -4.0349,-3.57188 0.0661,0.13229 0.0661,0.13229 0.0661,0.13229 h -1.52135 l 0.13229,-26.59062 5.75468,-0.26458 c 0,0 2.84428,-2.38125 2.64584,-2.38125 -0.19844,0 -0.19844,0 -0.19844,0 l 0.99219,-2.31511 -1.98438,-2.11667 -8.73125,0.33073"
           id="path8550"
           inkscape:connector-curvature="0" />
        <path
           inkscape:connector-curvature="0"
           id="path8552"
           d="m -384.69492,245.67129 c 0,0 -6.28386,0.26459 -6.35,0.13229 -0.0661,-0.13229 -0.0661,-0.13229 -0.0661,-0.13229 l -0.59531,-2.44739 c 0,0 4.10104,-3.70417 4.0349,-3.57188 -0.0661,0.13229 -0.0661,0.13229 -0.0661,0.13229 h 1.52135 l -0.13229,-26.59062 -5.75468,-0.26458 c 0,0 -2.84428,-2.38125 -2.64584,-2.38125 0.19844,0 0.19844,0 0.19844,0 l -0.99219,-2.31511 1.98438,-2.11667 8.73125,0.33073"
           style="fill:#29291d;fill-opacity:1;stroke:#000000;stroke-width:0.264583px;stroke-linecap:butt;stroke-linejoin:miter;stroke-opacity:1" />
      </g>
      <g
         id="g8560"
         style="fill:#29291d;fill-opacity:1"
         transform="translate(-817.03365,-5.2916663)">
        <path
           inkscape:connector-curvature="0"
           id="path8556"
           d="m -384.97721,245.67129 c 0,0 6.28386,0.26459 6.35,0.13229 0.0661,-0.13229 0.0661,-0.13229 0.0661,-0.13229 l 0.59531,-2.44739 c 0,0 -4.10104,-3.70417 -4.0349,-3.57188 0.0661,0.13229 0.0661,0.13229 0.0661,0.13229 h -1.52135 l 0.13229,-26.59062 5.75468,-0.26458 c 0,0 2.84428,-2.38125 2.64584,-2.38125 -0.19844,0 -0.19844,0 -0.19844,0 l 0.99219,-2.31511 -1.98438,-2.11667 -8.73125,0.33073"
           style="fill:#29291d;fill-opacity:1;stroke:#000000;stroke-width:0.264583px;stroke-linecap:butt;stroke-linejoin:miter;stroke-opacity:1" />
        <path
           style="fill:#29291d;fill-opacity:1;stroke:#000000;stroke-width:0.264583px;stroke-linecap:butt;stroke-linejoin:miter;stroke-opacity:1"
           d="m -384.69492,245.67129 c 0,0 -6.28386,0.26459 -6.35,0.13229 -0.0661,-0.13229 -0.0661,-0.13229 -0.0661,-0.13229 l -0.59531,-2.44739 c 0,0 4.10104,-3.70417 4.0349,-3.57188 -0.0661,0.13229 -0.0661,0.13229 -0.0661,0.13229 h 1.52135 l -0.13229,-26.59062 -5.75468,-0.26458 c 0,0 -2.84428,-2.38125 -2.64584,-2.38125 0.19844,0 0.19844,0 0.19844,0 l -0.99219,-2.31511 1.98438,-2.11667 8.73125,0.33073"
           id="path8558"
           inkscape:connector-curvature="0" />
      </g>
      <g
         transform="translate(-758.82528)"
         style="fill:#29291d;fill-opacity:1"
         id="g8566">
        <path
           style="fill:#29291d;fill-opacity:1;stroke:#000000;stroke-width:0.264583px;stroke-linecap:butt;stroke-linejoin:miter;stroke-opacity:1"
           d="m -384.97721,245.67129 c 0,0 6.28386,0.26459 6.35,0.13229 0.0661,-0.13229 0.0661,-0.13229 0.0661,-0.13229 l 0.59531,-2.44739 c 0,0 -4.10104,-3.70417 -4.0349,-3.57188 0.0661,0.13229 0.0661,0.13229 0.0661,0.13229 h -1.52135 l 0.13229,-26.59062 5.75468,-0.26458 c 0,0 2.84428,-2.38125 2.64584,-2.38125 -0.19844,0 -0.19844,0 -0.19844,0 l 0.99219,-2.31511 -1.98438,-2.11667 -8.73125,0.33073"
           id="path8562"
           inkscape:connector-curvature="0" />
        <path
           inkscape:connector-curvature="0"
           id="path8564"
           d="m -384.69492,245.67129 c 0,0 -6.28386,0.26459 -6.35,0.13229 -0.0661,-0.13229 -0.0661,-0.13229 -0.0661,-0.13229 l -0.59531,-2.44739 c 0,0 4.10104,-3.70417 4.0349,-3.57188 -0.0661,0.13229 -0.0661,0.13229 -0.0661,0.13229 h 1.52135 l -0.13229,-26.59062 -5.75468,-0.26458 c 0,0 -2.84428,-2.38125 -2.64584,-2.38125 0.19844,0 0.19844,0 0.19844,0 l -0.99219,-2.31511 1.98438,-2.11667 8.73125,0.33073"
           style="fill:#29291d;fill-opacity:1;stroke:#000000;stroke-width:0.264583px;stroke-linecap:butt;stroke-linejoin:miter;stroke-opacity:1" />
      </g>
      <path
         style="opacity:1;fill:url(#linearGradient8748);fill-opacity:1;stroke:none;stroke-width:0;stroke-linecap:butt;stroke-linejoin:round;stroke-miterlimit:4;stroke-dasharray:none;stroke-dashoffset:40.7433;stroke-opacity:1"
         d="m -1365.0684,94.511214 62.8159,-3.057617 0.6199,65.408483 -63.0616,0.80154 z"
         id="rect8568"
         inkscape:connector-curvature="0"
         sodipodi:nodetypes="ccccc" />
      <path
         sodipodi:nodetypes="ccccc"
         inkscape:connector-curvature="0"
         id="path8571"
         d="m -1285.6929,90.807047 62.8159,-4.11595 0.6199,70.170983 -63.0616,0.80154 z"
         style="opacity:1;fill:url(#linearGradient8585);fill-opacity:1;stroke:none;stroke-width:0;stroke-linecap:butt;stroke-linejoin:round;stroke-miterlimit:4;stroke-dasharray:none;stroke-dashoffset:40.7433;stroke-opacity:1" />
      <path
         style="opacity:1;fill:url(#linearGradient8750);fill-opacity:1;stroke:none;stroke-width:0;stroke-linecap:butt;stroke-linejoin:round;stroke-miterlimit:4;stroke-dasharray:none;stroke-dashoffset:40.7433;stroke-opacity:1"
         d="m -1206.8466,87.102879 61.7576,-4.115949 2.2074,73.87515 -63.0616,0.80154 z"
         id="path8573"
         inkscape:connector-curvature="0"
         sodipodi:nodetypes="ccccc" />
      <path
         sodipodi:nodetypes="ccccc"
         inkscape:connector-curvature="0"
         id="path8575"
         d="m -1132.2336,83.398713 62.8159,-5.174283 0.6199,78.63765 -63.0616,0.80154 z"
         style="opacity:1;fill:url(#linearGradient8589);fill-opacity:1;stroke:none;stroke-width:0;stroke-linecap:butt;stroke-linejoin:round;stroke-miterlimit:4;stroke-dasharray:none;stroke-dashoffset:40.7433;stroke-opacity:1" />
      <text
         xml:space="preserve"
         style="font-style:normal;font-variant:normal;font-weight:normal;font-stretch:normal;font-size:50.8px;line-height:1.25;font-family:sans-serif;-inkscape-font-specification:'sans-serif, Normal';font-variant-ligatures:normal;font-variant-caps:normal;font-variant-numeric:normal;font-feature-settings:normal;text-align:start;letter-spacing:0px;word-spacing:0px;writing-mode:lr-tb;text-anchor:start;fill:#aa0000;fill-opacity:1;stroke:none;stroke-width:0.264583"
         x="-1365.7218"
         y="141.42769"
         id="text8593"><tspan
           sodipodi:role="line"
           id="tspan8595"
           x="-1365.7218"
           y="141.42769">ラ</tspan></text>
      <text
         xml:space="preserve"
         style="font-style:normal;font-variant:normal;font-weight:normal;font-stretch:normal;font-size:50.8px;line-height:1.25;font-family:sans-serif;-inkscape-font-specification:'sans-serif, Normal';font-variant-ligatures:normal;font-variant-caps:normal;font-variant-numeric:normal;font-feature-settings:normal;text-align:start;letter-spacing:0px;word-spacing:0px;writing-mode:lr-tb;text-anchor:start;fill:#aa0000;fill-opacity:1;stroke:none;stroke-width:0.264583"
         x="-1277.7151"
         y="142.39879"
         id="text8599"><tspan
           sodipodi:role="line"
           id="tspan8597"
           x="-1277.7151"
           y="142.39879"
           style="font-style:normal;font-variant:normal;font-weight:normal;font-stretch:normal;font-size:50.8px;font-family:sans-serif;-inkscape-font-specification:'sans-serif, Normal';font-variant-ligatures:normal;font-variant-caps:normal;font-variant-numeric:normal;font-feature-settings:normal;text-align:start;writing-mode:lr-tb;text-anchor:start;fill:#aa0000;stroke-width:0.264583">ー</tspan></text>
      <text
         xml:space="preserve"
         style="font-style:normal;font-weight:normal;font-size:10.5833px;line-height:1.25;font-family:sans-serif;letter-spacing:0px;word-spacing:0px;fill:#aa0000;fill-opacity:1;stroke:none;stroke-width:0.264583"
         x="-1198.5913"
         y="136.78053"
         id="text8603"><tspan
           sodipodi:role="line"
           id="tspan8601"
           x="-1198.5913"
           y="136.78053"
           style="font-style:normal;font-variant:normal;font-weight:normal;font-stretch:normal;font-size:50.8px;font-family:sans-serif;-inkscape-font-specification:'sans-serif, Normal';font-variant-ligatures:normal;font-variant-caps:normal;font-variant-numeric:normal;font-feature-settings:normal;text-align:start;writing-mode:lr-tb;text-anchor:start;fill:#aa0000;stroke-width:0.264583">メ</tspan></text>
      <text
         xml:space="preserve"
         style="font-style:normal;font-variant:normal;font-weight:normal;font-stretch:normal;font-size:50.8px;line-height:1.25;font-family:sans-serif;-inkscape-font-specification:'sans-serif, Normal';font-variant-ligatures:normal;font-variant-caps:normal;font-variant-numeric:normal;font-feature-settings:normal;text-align:start;letter-spacing:0px;word-spacing:0px;writing-mode:lr-tb;text-anchor:start;fill:#aa0000;fill-opacity:1;stroke:none;stroke-width:0.264583"
         x="-1120.5427"
         y="131.59525"
         id="text8607"><tspan
           sodipodi:role="line"
           id="tspan8605"
           x="-1120.5427"
           y="131.59525"
           style="font-style:normal;font-variant:normal;font-weight:normal;font-stretch:normal;font-size:50.8px;font-family:sans-serif;-inkscape-font-specification:'sans-serif, Normal';font-variant-ligatures:normal;font-variant-caps:normal;font-variant-numeric:normal;font-feature-settings:normal;text-align:start;writing-mode:lr-tb;text-anchor:start;fill:#aa0000;stroke-width:0.264583">ン</tspan></text>
      <text
         xml:space="preserve"
         style="font-style:normal;font-weight:normal;font-size:10.5833px;line-height:1.25;font-family:sans-serif;letter-spacing:0px;word-spacing:0px;fill:#000000;fill-opacity:1;stroke:none;stroke-width:0.264583"
         x="-996.42102"
         y="221.32982"
         id="text8619"><tspan
           sodipodi:role="line"
           id="tspan8617"
           x="-996.42102"
           y="221.32982"
           style="font-style:normal;font-variant:normal;font-weight:normal;font-stretch:normal;font-size:19.7556px;font-family:sans-serif;-inkscape-font-specification:'sans-serif, Normal';font-variant-ligatures:normal;font-variant-caps:normal;font-variant-numeric:normal;font-feature-settings:normal;text-align:start;writing-mode:lr-tb;text-anchor:start;fill:#cccccc;stroke-width:0.264583">ガ</tspan><tspan
           sodipodi:role="line"
           x="-996.42102"
           y="247.4476"
           style="font-style:normal;font-variant:normal;font-weight:normal;font-stretch:normal;font-size:19.7556px;font-family:sans-serif;-inkscape-font-specification:'sans-serif, Normal';font-variant-ligatures:normal;font-variant-caps:normal;font-variant-numeric:normal;font-feature-settings:normal;text-align:start;writing-mode:lr-tb;text-anchor:start;fill:#cccccc;stroke-width:0.264583"
           id="tspan8621">ス</tspan></text>
      <path
         style="fill:none;stroke:#000000;stroke-width:0.264583px;stroke-linecap:butt;stroke-linejoin:miter;stroke-opacity:1"
         d="m -1045.8256,276.42072 5.2384,-2.24508"
         id="path8633"
         inkscape:connector-curvature="0" />
      <path
         style="opacity:1;fill:#aa0000;fill-opacity:0.905882;stroke:none;stroke-width:0;stroke-linecap:butt;stroke-linejoin:round;stroke-miterlimit:4;stroke-dasharray:none;stroke-dashoffset:40.7433;stroke-opacity:1"
         d="m -3943.8014,491.63918 c 0,-19.83435 0.1989,-27.9484 0.442,-18.03123 0.2431,9.91717 0.2431,26.14528 0,36.06245 -0.2431,9.91717 -0.442,1.80312 -0.442,-18.03122 z"
         id="path8635"
         inkscape:connector-curvature="0"
         transform="matrix(0.26458333,0,0,0.26458333,0,11.250462)" />
      <path
         style="opacity:1;fill:#2b0000;fill-opacity:0.905882;stroke:none;stroke-width:0;stroke-linecap:butt;stroke-linejoin:round;stroke-miterlimit:4;stroke-dasharray:none;stroke-dashoffset:40.7433;stroke-opacity:1"
         d="m -3954.6572,1003.7603 c -1.8588,-9.58095 -14.0955,-783.76088 -12.4105,-785.44589 0.7829,-0.78287 -5.7296,0.0617 -1.9408,1.01267 3.8352,0.96259 17.1425,-6.58441 22.4854,-1.49323 3.9733,3.78622 0.9346,15.82626 0.178,36.8347 0.898,18.29242 0.5797,192.5329 1.0212,387.63318 0.6248,276.10421 5.042,354.9822 2.3715,355.87564 -1.8871,0.63134 -11.0043,9.19363 -11.7048,5.58293 z"
         id="path8637"
         inkscape:connector-curvature="0"
         transform="matrix(0.26458333,0,0,0.26458333,0,11.250462)"
         sodipodi:nodetypes="cccscscc" />
      <path
         style="fill:url(#linearGradient8752);fill-opacity:1;stroke:#000000;stroke-width:0.264583px;stroke-linecap:butt;stroke-linejoin:miter;stroke-opacity:1"
         d="m -1413.2678,85.216087 361.4553,-31.805073 296.34846,21.702286 -16.83798,13.470385 -276.51708,-19.831399 -355.8426,21.702283 z"
         id="path8645"
         inkscape:connector-curvature="0" />
      <path
         style="fill:#2b1100;stroke:#000000;stroke-width:0.275452px;stroke-linecap:butt;stroke-linejoin:miter;stroke-opacity:1"
         d="m -1062.0412,189.04824 -278.3326,-14.80779 5.165,8.99044 272.5937,13.22124 z"
         id="path8655"
         inkscape:connector-curvature="0" />
      <path
         style="opacity:1;fill:#4c1e00;fill-opacity:0.905882;stroke:none;stroke-width:0;stroke-linecap:butt;stroke-linejoin:round;stroke-miterlimit:4;stroke-dasharray:none;stroke-dashoffset:40.7433;stroke-opacity:1"
         d="m -1326.8327,162.29661 264.9175,7.48355 -10e-5,19.45722 -277.6395,-14.21874 z"
         id="rect8663"
         inkscape:connector-curvature="0"
         sodipodi:nodetypes="ccccc" />
      <path
         style="opacity:1;fill:url(#linearGradient8754);fill-opacity:1;stroke:none;stroke-width:0;stroke-linecap:butt;stroke-linejoin:round;stroke-miterlimit:4;stroke-dasharray:none;stroke-dashoffset:40.7433;stroke-opacity:1"
         d="m -1423.264,109.76622 c 0,13.31618 0.133,28.50863 -5.4483,35.94395 -3.8469,5.12496 -12.3728,4.79688 -17.558,4.80188 -4.6347,0.004 -11.3825,-1.6676 -14.996,-5.83596 -6.2946,-7.26113 -8.0266,-20.57463 -8.0354,-34.86542 -0.01,-11.438697 -0.1569,-24.775511 4.1272,-32.184565 4.1406,-7.161107 12.6081,-8.587557 18.854,-8.605647 6.094,-0.0176 14.8195,-0.14483 18.9438,6.687257 4.4762,7.415077 4.0982,22.262088 4.1127,33.969615"
         id="path8674"
         inkscape:connector-curvature="0"
         sodipodi:nodetypes="csssssssc" />
      <path
         style="fill:#000000;stroke:#000000;stroke-width:0.264583px;stroke-linecap:butt;stroke-linejoin:miter;stroke-opacity:1"
         d="m -1450.4488,69.194208 10.5833,0.13229 -0.1322,-1.852081 -4.2334,-0.926041 c 0,0 0,-1.984375 0,-1.984375 v 0 h -2.5136 l -0.1322,1.719791 -4.1011,1.058334 -0.1323,1.719792 z"
         id="path8677"
         inkscape:connector-curvature="0" />
      <path
         inkscape:connector-curvature="0"
         id="path8679"
         d="m -1450.4488,149.89398 10.5833,-0.13229 -0.1322,1.85208 -4.2334,0.92604 c 0,0 0,1.98438 0,1.98438 v 0 h -2.5136 l -0.1322,-1.7198 -4.1011,-1.05833 -0.1323,-1.71979 z"
         style="fill:#000000;stroke:#000000;stroke-width:0.264583px;stroke-linecap:butt;stroke-linejoin:miter;stroke-opacity:1" />
      <path
         style="opacity:1;fill:#000000;fill-opacity:0.58209;stroke:none;stroke-width:0;stroke-linecap:butt;stroke-linejoin:round;stroke-miterlimit:4;stroke-dasharray:none;stroke-dashoffset:40.7433;stroke-opacity:1"
         id="path8685"
         d="m -1446.3385,66.187796 c -0.1594,-1.004123 -0.5209,-1.956615 -0.7989,-2.930427 -0.1876,-0.62982 -0.2564,-1.28193 -0.2839,-1.935634 -0.019,-0.532286 -0.011,-1.064948 -0.01,-1.597414 0.01,-0.611594 0.01,-1.223279 0.01,-1.834919 0,-0.545989 0,-1.091967 0,-1.637956 0,-0.493491 -0.024,-0.986417 0.082,-1.470999 0.1601,-0.438475 0.382,-0.844576 0.5368,-1.287063 0.2277,-0.512683 0.4724,-1.033283 0.7793,-1.504611 0.8057,-0.881976 2.1061,-1.391563 3.0691,-1.895922 0.7489,-0.39224 -1.467,0.840777 -2.2046,1.253908 -0.054,0.03015 0.1018,-0.06974 0.1527,-0.104611 0.3311,-0.286123 0.351,-0.727049 0.3805,-1.134528 0.025,-0.527762 0.019,-1.056482 0.015,-1.584659 0.048,-0.496546 -0.056,-0.859192 -0.2599,-1.298117 -0.1055,-0.154043 -0.2248,-0.292312 -0.3584,-0.421897 0,0 2.3674,-1.447535 2.3674,-1.447535 v 0 c 0.1482,0.157758 0.2872,0.321069 0.404,0.504309 0.2127,0.454239 0.365,0.895265 0.3067,1.408335 0,0.532778 0.01,1.065665 0,1.598374 -0.023,0.452229 -0.026,0.940168 -0.2832,1.330619 -0.7836,0.8558 -0.3165,0.375983 -2.6908,1.617059 -0.7476,0.390763 1.4602,-0.845029 2.1859,-1.275143 0.2369,-0.14047 -0.7526,0.413673 -0.5419,0.360367 -0.2217,0.23657 -0.2788,0.409827 -0.4231,0.694373 -0.1253,0.246875 -0.3038,0.464606 -0.3938,0.729263 -0.086,0.242104 -0.1505,0.488947 -0.2581,0.722738 -0.033,0.07097 -0.07,0.139896 -0.1044,0.209841 -0.036,0.05357 -0.079,0.102833 -0.108,0.1607 -0.028,0.05611 -0.04,0.11874 -0.059,0.17811 -0.185,0.444616 -0.1247,0.932439 -0.1318,1.403321 0,0.546481 0,1.092949 0,1.639427 0,0.611336 -0.01,1.222687 0,1.83402 0,0.529664 -0.01,1.059405 0,1.589045 0.02,0.636723 0.066,1.273604 0.2317,1.89198 0.2556,0.983964 0.5934,1.943547 0.8392,2.930205 0,0 -2.4417,1.305441 -2.4417,1.305441 z"
         inkscape:connector-curvature="0" />
    </g>
    <path
       transform="matrix(1,0,0,0.98540751,-2.9404711,-2.2403)"
       inkscape:transform-center-y="-0.14933146"
       inkscape:transform-center-x="0.14933229"
       inkscape:randomized="0"
       inkscape:rounded="0"
       inkscape:flatsided="false"
       sodipodi:arg2="1.4137167"
       sodipodi:arg1="0.78539816"
       sodipodi:r2="1.5445693"
       sodipodi:r1="3.0891385"
       sodipodi:cy="44.587975"
       sodipodi:cx="182.03333"
       sodipodi:sides="5"
       id="path9266"
       style="opacity:0.597561;fill:#ffffff;fill-opacity:1;stroke:none;stroke-width:0;stroke-linecap:butt;stroke-linejoin:round;stroke-miterlimit:4;stroke-dasharray:none;stroke-dashoffset:40.7433;stroke-opacity:1;filter:url(#filter9690)"
       sodipodi:type="star"
       d="m 184.21768,46.772325 -1.94273,-0.658797 -1.64406,1.226889 0.0262,-2.051223 -1.67488,-1.184467 1.95893,-0.608928 0.60893,-1.958931 1.18446,1.674885 2.05123,-0.02622 -1.22689,1.644063 z" />
    <use
       style="opacity:0.597561;filter:url(#filter9644)"
       transform="translate(-37.99906,52.977063)"
       xlink:href="#path9266"
       inkscape:spray-origin="#path9266"
       height="100%"
       width="100%"
       y="0"
       x="0"
       id="use9596" />
    <use
       style="opacity:0.597561;filter:url(#filter9640)"
       transform="translate(-141.75017,39.498098)"
       xlink:href="#path9266"
       inkscape:spray-origin="#path9266"
       height="100%"
       width="100%"
       y="0"
       x="0"
       id="use9598" />
    <use
       style="opacity:0.597561;filter:url(#filter9636)"
       transform="translate(122.18681,54.833167)"
       xlink:href="#path9266"
       inkscape:spray-origin="#path9266"
       height="100%"
       width="100%"
       y="0"
       x="0"
       id="use9600" />
    <use
       style="opacity:0.597561;filter:url(#filter9632)"
       transform="translate(164.73906,19.57053)"
       xlink:href="#path9266"
       inkscape:spray-origin="#path9266"
       height="100%"
       width="100%"
       y="0"
       x="0"
       id="use9602" />
    <use
       style="opacity:0.597561;filter:url(#filter9628)"
       transform="translate(391.69432,-5.53728)"
       xlink:href="#path9266"
       inkscape:spray-origin="#path9266"
       height="100%"
       width="100%"
       y="0"
       x="0"
       id="use9604" />
    <use
       style="opacity:0.597561;filter:url(#filter9624)"
       transform="translate(334.94686,37.79691)"
       xlink:href="#path9266"
       inkscape:spray-origin="#path9266"
       height="100%"
       width="100%"
       y="0"
       x="0"
       id="use9606" />
    <use
       style="opacity:0.597561;filter:url(#filter9620)"
       transform="translate(239.15644,56.142222)"
       xlink:href="#path9266"
       inkscape:spray-origin="#path9266"
       height="100%"
       width="100%"
       y="0"
       x="0"
       id="use9608" />
    <use
       style="opacity:0.597561;filter:url(#filter9616)"
       transform="translate(76.424505,13.94451)"
       xlink:href="#path9266"
       inkscape:spray-origin="#path9266"
       height="100%"
       width="100%"
       y="0"
       x="0"
       id="use9610" />
    <path
       transform="matrix(1,0,0,0.98540751,-150.2728,44.531867)"
       sodipodi:nodetypes="csscsc"
       inkscape:connector-curvature="0"
       id="path9697"
       d="M 89.898893,76.000814 C 76.857203,78.11684 63.700573,72.833126 57.295189,62.907132 50.889805,52.98114 52.688638,40.664442 61.752911,32.384888 c 9.064273,-8.279554 23.337882,-10.643866 35.371712,-5.859047 0,0 -29.348476,12.020574 -30.152787,25.066133 -0.686917,11.141487 22.927057,24.40884 22.927057,24.40884 z"
       style="fill:#ffffff;fill-opacity:1;stroke:none;stroke-width:0;stroke-linecap:butt;stroke-linejoin:round;stroke-miterlimit:4;stroke-dasharray:none;stroke-dashoffset:40.7433;stroke-opacity:1;filter:url(#filter9816)" />
  </g>
</svg>
